# xmcd
#
# Track frame offsets: 
#        150
#        17690
#        29525
#        39465
#        42721
#        54367
#        60835
#        65571
#        85795
#        90963
#        104532
#        111107
#        116087
#        122833
#        138771
#        147139
#        155875
#        169165
#        181440
#        197517
#        201273
#        218938
#        234769
#        244033
#        254990
#        259636
#        265375
#        284691
#
# Disc length: 4577 seconds
#
# Revision: 0
# Processed by: cddbd v1.5.2PL0 Copyright (c) Steve Scherf et al.
# Submitted via: ExactAudioCopy v1.3
#
DISCID=9f11df1c
DTITLE=Dan Melchior - Filthy Frozen River Rag
DYEAR=2016
DGENRE=Blues
TTITLE0=Ice Cream and Hailstones
TTITLE1=Oyster, Oyster
TTITLE2=New Pair Of Trousers Blues
TTITLE3=The Ozzy Feldman 1
TTITLE4=Rotten Rubber Rabbit
TTITLE5=War Dance
TTITLE6=Says The Engineer
TTITLE7=Terse and Taciturn
TTITLE8=My Wasteland
TTITLE9=It's A Hard Life At Sea
TTITLE10=The Ozzy Feldman 2
TTITLE11=Eyehooks For Andrew
TTITLE12=Seabed Boogie
TTITLE13=Gel Crash Helmet
TTITLE14=My Card Ran Out
TTITLE15=Pyre
TTITLE16=Noel Edmond's Wife
TTITLE17=The World Is Strange
TTITLE18=Mock Mock Tudor
TTITLE19=The Ozzy Feldman Three
TTITLE20=The Spider In My Shoes
TTITLE21=City Lights
TTITLE22=They Made You Grey
TTITLE23=Two Dogs
TTITLE24=When They Come
TTITLE25=The Ozzy Feldman Four
TTITLE26=Trying To Act Cool In A Village Blues
TTITLE27=Propaganda Cult
EXTD=
EXTT0=
EXTT1=
EXTT2=
EXTT3=
EXTT4=
EXTT5=
EXTT6=
EXTT7=
EXTT8=
EXTT9=
EXTT10=
EXTT11=
EXTT12=
EXTT13=
EXTT14=
EXTT15=
EXTT16=
EXTT17=
EXTT18=
EXTT19=
EXTT20=
EXTT21=
EXTT22=
EXTT23=
EXTT24=
EXTT25=
EXTT26=
EXTT27=
PLAYORDER=
